<svg width="50" height="50" viewBox="0 0 50 50" fill="none" xmlns="http://www.w3.org/2000/svg">
<rect width="50" height="50" rx="25" fill="#9C9F02"/>
<path d="M25.508 40C24.192 40 22.848 40 21.476 40C20.132 40 18.788 40 17.444 40C17.36 40 17.276 39.986 17.192 39.958C17.136 39.902 17.08 39.846 17.024 39.79C16.996 39.734 16.982 39.65 16.982 39.538C16.982 37.298 16.982 35.086 16.982 32.902C16.982 30.718 16.982 28.548 16.982 26.392C16.982 24.208 16.982 22.024 16.982 19.84C16.982 17.628 16.982 15.416 16.982 13.204H25.928L25.508 14.086C25.508 15.402 25.508 16.704 25.508 17.992C25.508 19.28 25.508 20.568 25.508 21.856C25.508 23.424 25.508 24.978 25.508 26.518C25.508 28.03 25.508 29.57 25.508 31.138C25.508 32.678 25.508 34.26 25.508 35.884C25.508 36.64 25.508 37.368 25.508 38.068C25.508 38.768 25.508 39.412 25.508 40ZM14.966 10.6H34.958C35.07 10.6 35.154 10.628 35.21 10.684C35.266 10.712 35.308 10.754 35.336 10.81C35.392 10.866 35.42 10.95 35.42 11.062C35.42 11.706 35.42 12.476 35.42 13.372C35.42 14.268 35.42 15.164 35.42 16.06C35.42 16.956 35.42 17.726 35.42 18.37H15.428C15.344 18.37 15.26 18.356 15.176 18.328C15.12 18.272 15.064 18.216 15.008 18.16C14.98 18.076 14.966 17.992 14.966 17.908C14.966 16.648 14.966 15.43 14.966 14.254C14.966 13.05 14.966 11.832 14.966 10.6ZM21.35 23.326H32.858C32.998 23.326 33.11 23.368 33.194 23.452C33.278 23.536 33.32 23.648 33.32 23.788C33.32 24.432 33.32 25.188 33.32 26.056C33.32 26.924 33.32 27.792 33.32 28.66C33.32 29.5 33.32 30.228 33.32 30.844H21.35V23.326Z" fill="#FCFCFD"/>
<rect x="1.5" y="1.5" width="47" height="47" rx="23.5" stroke="white" stroke-opacity="0.33" stroke-width="3"/>
</svg>
